<?xml version="1.0" standalone="no"?>
<!DOCTYPE svg PUBLIC "-//W3C//DTD SVG 20010904//EN"
 "http://www.w3.org/TR/2001/REC-SVG-20010904/DTD/svg10.dtd">
<svg version="1.0" xmlns="http://www.w3.org/2000/svg"
 width="4931.000000pt" height="4423.000000pt" viewBox="0 0 4931.000000 4423.000000"
 preserveAspectRatio="xMidYMid meet">

<g transform="translate(0.000000,4423.000000) scale(0.100000,-0.100000)"
fill="#8B2121" stroke="none">
<path d="M24360 40679 c-744 -37 -1254 -99 -1862 -224 -1034 -215 -2076 -582
-3243 -1145 -1035 -499 -1838 -735 -2689 -790 -288 -19 -777 3 -1046 46 -1133
181 -2244 746 -3438 1747 l-151 127 -78 -88 c-98 -109 -273 -326 -273 -338 1
-5 37 -34 82 -64 239 -160 652 -548 894 -840 600 -722 1059 -1572 1394 -2580
85 -254 103 -331 155 -660 96 -612 173 -1480 200 -2255 4 -99 8 -200 10 -225
18 -224 26 -1897 11 -2233 l-8 -169 -62 -38 c-378 -235 -1266 -828 -1721
-1148 -481 -339 -661 -469 -1090 -786 -1627 -1204 -2980 -2379 -3995 -3471
-300 -322 -594 -674 -865 -1035 -173 -231 -475 -619 -720 -925 -573 -716
-1040 -1097 -1675 -1366 -186 -78 -432 -160 -635 -210 -88 -22 -167 -42 -175
-45 -8 -3 25 -20 75 -38 350 -126 796 -364 1134 -605 220 -157 334 -254 521
-441 162 -162 211 -219 390 -455 366 -484 1094 -1412 1525 -1945 105 -129 258
-318 340 -420 415 -517 761 -893 1356 -1475 1369 -1338 3369 -2835 5577 -4174
l202 -123 0 -131 c12 -4158 12 -4209 -4 -4367 -63 -600 -222 -1243 -432 -1747
-201 -484 -442 -863 -741 -1166 -334 -339 -705 -546 -1158 -646 -103 -22 -337
-51 -420 -51 -30 0 -55 -3 -55 -6 0 -13 84 -131 156 -219 406 -497 962 -829
1589 -949 423 -81 937 -56 1366 65 157 44 252 80 381 145 147 74 184 101 530
390 180 151 330 274 333 274 3 0 40 -24 83 -54 550 -382 1237 -569 2097 -571
333 0 343 1 609 92 328 111 647 268 956 470 354 232 781 638 872 828 38 82 37
99 -4 92 -18 -3 -70 -13 -115 -21 -315 -57 -829 -31 -1262 65 -285 63 -615
166 -755 236 -625 314 -1114 899 -1321 1579 -84 277 -164 821 -190 1289 -3 61
-8 124 -10 140 -2 17 -7 116 -10 220 -3 105 -8 206 -11 225 -4 19 -7 594 -9
1277 l-3 1242 22 -11 c11 -6 82 -43 156 -83 498 -266 1329 -678 1810 -898 492
-225 757 -331 1209 -486 174 -60 379 -131 456 -159 77 -28 241 -87 365 -132
913 -330 1856 -645 2627 -876 2294 -687 4535 -1132 6448 -1279 105 -8 210 -17
235 -20 25 -3 214 -14 420 -26 206 -11 376 -21 377 -23 2 -1 10 -90 19 -197
32 -396 7 -709 -77 -964 -144 -435 -408 -752 -774 -931 -283 -138 -543 -195
-900 -195 -319 -1 -672 54 -958 147 -43 15 -80 24 -82 22 -6 -6 106 -205 191
-340 370 -583 806 -1000 1303 -1246 324 -161 630 -232 994 -232 707 0 1469
338 2260 1003 l47 40 43 -31 c23 -18 132 -93 242 -167 593 -398 1208 -637
1830 -710 193 -22 506 -20 707 6 867 110 1656 627 2328 1524 141 189 186 258
164 251 -66 -20 -480 -112 -639 -141 -760 -138 -1390 -120 -1940 55 -627 201
-1109 618 -1426 1234 -43 83 -98 201 -122 261 -53 129 -147 403 -147 427 0 15
30 17 373 18 204 1 404 3 442 5 39 2 153 6 255 10 859 28 1964 119 2920 241
2751 350 5279 980 7536 1879 148 59 273 111 277 115 5 4 -13 11 -40 14 -162
23 -572 93 -768 132 -620 123 -1064 266 -1485 480 -326 165 -584 349 -833 593
-277 271 -480 551 -662 911 -126 251 -208 456 -300 754 l-53 172 -6 180 c-3
98 -8 296 -11 439 -3 143 -7 328 -10 410 -3 83 -7 258 -10 390 -3 132 -8 303
-10 380 -34 982 -37 1357 -12 1525 67 435 174 709 364 927 145 166 360 266
605 280 425 24 837 -211 1138 -648 76 -110 132 -218 161 -307 17 -53 28 -72
40 -72 25 0 34 99 25 280 -22 478 -104 890 -251 1256 -334 832 -919 1296
-1780 1409 -146 19 -497 22 -675 6 -300 -28 -656 -100 -998 -202 -95 -29 -174
-50 -175 -48 -2 2 -39 108 -82 234 -193 569 -381 905 -680 1214 -479 496
-1141 772 -2065 861 -69 7 -137 11 -152 9 l-27 -4 93 -160 c51 -88 136 -236
190 -330 494 -855 752 -1714 861 -2870 46 -495 47 -551 50 -2515 1 -1026 -2
-1923 -7 -1995 -8 -132 -17 -189 -62 -395 -127 -581 -380 -1044 -783 -1430
-236 -227 -565 -449 -888 -600 -634 -296 -1417 -470 -2345 -520 -195 -10 -459
-14 -466 -7 -3 3 -45 164 -95 358 -288 1134 -657 2378 -846 2852 -30 76 -53
140 -50 143 2 2 40 22 85 43 180 88 613 336 972 559 795 493 1535 1008 2180
1516 185 145 450 364 450 371 0 2 -36 82 -81 177 -106 226 -332 718 -499 1086
-73 160 -136 292 -139 292 -4 0 -51 -45 -106 -101 -133 -135 -482 -460 -680
-635 -1048 -922 -2002 -1542 -2732 -1778 -62 -20 -116 -36 -121 -36 -5 0 -41
71 -82 158 -525 1126 -1315 2425 -2164 3557 -326 436 -724 928 -1029 1273 -55
62 -98 114 -96 116 2 3 47 23 99 46 259 114 696 347 1065 568 1953 1171 3440
2655 4187 4180 54 112 104 215 109 229 12 32 -3 52 156 -212 337 -559 524
-1061 649 -1739 60 -327 112 -791 129 -1136 10 -211 15 -249 33 -254 18 -6
396 -50 522 -61 41 -4 173 -17 292 -31 541 -60 805 -128 861 -221 10 -18 22
-31 27 -28 4 2 11 37 14 77 4 39 14 107 21 150 21 119 63 494 75 666 51 769
-82 1663 -366 2449 -24 67 -44 126 -44 132 0 6 8 11 19 11 33 0 222 58 343
105 479 188 763 563 849 1125 20 127 18 670 -2 670 -4 0 -40 -19 -81 -42 -244
-138 -567 -240 -881 -279 -153 -18 -472 -6 -627 24 -298 58 -576 173 -845 351
-111 73 -293 214 -330 256 l-20 22 89 352 c49 193 115 448 146 566 l56 215
205 1 c280 1 451 29 727 119 284 92 596 264 841 461 157 127 491 467 491 501
0 5 -24 15 -52 22 -98 25 -331 112 -472 178 -487 225 -912 548 -1261 958 -284
333 -529 770 -694 1238 -17 48 -27 87 -24 87 11 0 772 -232 1118 -340 1428
-449 2355 -891 2817 -1341 173 -169 271 -319 323 -491 13 -46 45 -141 69 -213
133 -389 139 -799 15 -1151 -147 -422 -498 -781 -972 -999 -59 -26 -104 -52
-100 -56 15 -14 262 -99 405 -139 813 -231 1545 -190 2070 115 569 331 931
946 1079 1835 16 96 29 186 29 200 0 51 4 51 194 20 873 -144 1578 -25 2166
366 549 365 970 972 1244 1796 25 75 52 164 61 197 8 33 18 67 21 76 5 12 -7
10 -52 -11 -555 -251 -874 -350 -1354 -418 -221 -31 -279 -36 -525 -45 -834
-32 -1706 137 -2635 511 -293 118 -479 206 -1140 540 -1234 624 -2601 1307
-3055 1528 -1340 652 -2058 957 -2385 1016 -52 9 -103 24 -112 32 -33 28 -135
187 -323 502 -380 636 -597 966 -919 1395 -483 646 -1031 1234 -1615 1734
-1683 1442 -3762 2268 -6181 2456 -457 35 -682 41 -1010 24z m-160 -2799
c1769 -96 3417 -661 4760 -1633 277 -201 570 -449 765 -647 l110 -112 -105 6
c-683 39 -1587 41 -2280 6 -2520 -131 -5088 -683 -7630 -1640 -1008 -379
-2142 -892 -2915 -1318 -133 -73 -201 -105 -203 -97 -9 37 53 428 104 660 171
780 499 1543 936 2178 317 461 693 862 1133 1210 662 524 1495 917 2425 1141
850 205 1938 298 2900 246z m5155 -5419 c817 -24 1596 -94 2065 -187 214 -43
197 -34 237 -122 348 -760 465 -1767 323 -2792 -18 -136 -68 -410 -75 -418 -1
-2 -72 29 -156 68 -753 349 -1593 555 -2552 625 -187 14 -871 21 -962 11 -16
-2 -88 -7 -160 -11 -617 -31 -1421 -171 -2075 -361 -2397 -696 -4427 -2220
-5683 -4266 -284 -462 -533 -959 -725 -1443 -86 -218 -215 -602 -263 -785 -18
-69 -35 -128 -39 -133 -7 -9 -194 38 -525 133 -221 63 -629 183 -718 211 -23
8 -41 9 -46 3 -4 -5 -15 -45 -24 -89 -9 -44 -55 -264 -102 -490 -47 -225 -99
-473 -115 -550 -50 -239 -107 -503 -144 -664 -20 -85 -36 -160 -36 -166 0 -38
983 -539 1480 -755 41 -18 80 -36 86 -41 6 -5 12 -37 13 -71 6 -184 91 -639
176 -948 330 -1187 1003 -2411 1956 -3555 306 -368 500 -571 789 -827 1262
-1115 2763 -1860 4483 -2224 341 -72 832 -148 1152 -179 33 -3 78 -8 100 -10
63 -8 455 -33 616 -40 272 -12 804 -7 1104 11 225 13 298 14 309 5 24 -20 106
-198 186 -406 269 -692 580 -1751 580 -1972 l0 -43 -57 0 c-153 0 -989 66
-1398 110 -1711 186 -3320 505 -5095 1012 -249 70 -299 85 -680 203 -2137 659
-4449 1640 -6191 2627 -124 70 -231 133 -236 140 -7 9 -13 309 -17 863 -3 468
-8 1003 -11 1190 -3 187 -7 662 -10 1055 -3 393 -7 859 -10 1035 -3 176 -7
592 -10 925 -3 333 -7 747 -10 920 -3 173 -7 529 -10 790 -13 1209 -32 2617
-50 3770 -3 168 -7 454 -10 635 -3 182 -7 463 -10 625 -3 162 -7 448 -10 635
-3 187 -7 421 -10 520 -3 99 -7 360 -10 580 -3 220 -8 436 -10 480 -2 44 -7
251 -11 460 l-7 381 154 101 c2129 1396 4614 2405 7270 2953 1321 272 2756
438 4029 466 157 4 286 8 287 9 10 7 565 4 868 -4z m-115 -4905 c706 -64 1325
-264 1798 -580 70 -47 142 -98 161 -113 l34 -29 -41 -101 c-187 -464 -549
-1059 -940 -1547 -324 -403 -748 -828 -1152 -1152 -1647 -1321 -3838 -1961
-6410 -1872 -146 5 -268 12 -273 17 -10 10 63 389 118 609 468 1863 1731 3439
3384 4222 414 195 742 300 1276 405 473 93 781 135 1140 155 206 12 705 4 905
-14z m-14881 -644 c1 -270 4 -579 6 -685 2 -105 7 -581 10 -1057 3 -476 7
-1034 10 -1240 3 -206 7 -697 10 -1090 3 -393 7 -935 10 -1205 3 -269 7 -760
10 -1090 9 -1046 15 -1735 20 -2255 3 -278 7 -802 10 -1165 3 -363 8 -866 11
-1117 4 -351 3 -458 -6 -458 -36 0 -585 308 -867 486 -1011 639 -1875 1417
-2511 2259 -681 902 -1096 1883 -1227 2900 -49 380 -51 502 -11 765 152 1014
603 1964 1371 2885 589 707 1318 1352 2424 2145 324 233 671 492 696 520 l20
22 6 -63 c3 -35 7 -286 8 -557z m12267 -8025 c536 -768 1026 -1585 1544 -2577
139 -265 408 -810 512 -1035 218 -472 393 -868 481 -1087 l35 -88 -26 0 c-111
1 -502 43 -752 81 -1344 207 -2534 760 -3589 1668 -185 159 -579 551 -745 741
-488 558 -897 1169 -1202 1795 -127 262 -259 593 -243 610 3 2 48 -2 100 -11
315 -51 691 -95 989 -115 256 -17 848 -15 1130 5 494 35 1111 116 1475 195
156 33 130 49 291 -182z"/>
</g>
</svg>
